# Blender 4.1.1
# www.blender.org
mtllib placeholder.mtl
o Cube
v 25.250675 53.865807 -25.250675
v 25.250675 3.364456 -25.250675
v 25.250675 53.865807 25.250675
v 25.250675 3.364456 25.250675
v -25.250675 53.865807 -25.250675
v -25.250675 3.364456 -25.250675
v -25.250675 53.865807 25.250675
v -25.250675 3.364456 25.250675
v -27.201204 1.413927 -9.067067
v -27.201204 1.413927 9.067067
v 27.201204 55.816338 -9.067067
v 27.201204 55.816338 9.067067
v -27.201204 55.816338 9.067067
v -27.201204 55.816338 -9.067067
v 27.201204 1.413927 9.067067
v 27.201204 1.413927 -9.067067
v 9.067067 1.413927 -27.201204
v -9.067067 1.413927 -27.201204
v 9.067067 55.816338 27.201204
v -9.067067 55.816338 27.201204
v -9.067067 1.413927 27.201204
v 9.067067 1.413927 27.201204
v -9.067067 55.816338 -27.201204
v 9.067067 55.816338 -27.201204
v 9.067067 1.413927 -9.067067
v -9.067067 1.413927 -9.067067
v 9.067067 1.413927 9.067067
v -9.067067 1.413927 9.067067
v -9.067067 55.816338 -9.067067
v 9.067067 55.816338 -9.067067
v -9.067067 55.816338 9.067067
v 9.067067 55.816338 9.067067
v 9.067067 76.877411 27.201204
v -9.067067 76.877411 27.201204
v -9.067067 76.877411 -27.201204
v 9.067067 76.877411 -27.201204
v -9.067067 61.998894 -9.067067
v 9.067067 61.998894 -9.067067
v -9.067067 61.998894 9.067067
v 9.067067 61.998894 9.067067
v 27.201204 37.683941 -27.201204
v 27.201204 19.549807 -27.201204
v -27.201204 19.549807 27.201204
v -27.201204 37.683941 27.201204
v 27.201204 37.683941 27.201204
v 27.201204 19.549807 27.201204
v -27.201204 37.683941 -27.201204
v -27.201204 19.549807 -27.201204
v 31.070374 37.683941 -9.067067
v 31.070374 19.549807 -9.067067
v 31.070374 37.683941 9.067067
v 31.070374 19.549807 9.067067
v -31.070374 37.683941 9.067067
v -31.070374 19.549807 9.067067
v -31.070374 37.683941 -9.067067
v -31.070374 19.549807 -9.067067
v -9.067067 37.683941 -33.417740
v -9.067067 19.549807 -33.417740
v 9.067067 37.683941 -33.417740
v 9.067067 19.549807 -33.417740
v 9.067067 37.683941 33.417740
v 9.067067 19.549807 33.417740
v -9.067067 37.683941 33.417740
v -9.067067 19.549807 33.417740
vn -0.1197 0.9928 -0.0000
vn -0.3205 0.1513 0.9351
vn -0.9681 0.1416 -0.2066
vn 0.1197 -0.9928 -0.0000
vn 0.9681 0.1416 0.2066
vn 0.3205 0.1513 -0.9351
vn 0.9681 0.1416 -0.2066
vn 0.9780 0.2087 -0.0000
vn -0.0000 -1.0000 -0.0000
vn -0.9681 0.1416 0.2066
vn -0.9780 0.2087 -0.0000
vn -0.0000 1.0000 -0.0000
vn -0.0000 0.9928 -0.1197
vn -1.0000 -0.0000 -0.0000
vn -0.0000 -0.9928 -0.1197
vn -0.3205 0.1513 -0.9351
vn -0.0000 0.3243 -0.9460
vn -0.0000 -0.9928 0.1197
vn 0.3205 0.1513 0.9351
vn -0.0000 0.3243 0.9460
vn -0.0000 0.9928 0.1197
vn 1.0000 -0.0000 -0.0000
vn -0.0000 0.7731 0.6343
vn -0.0000 0.7731 -0.6343
vn -0.0000 -0.0000 -1.0000
vn -0.0000 -0.0000 1.0000
vn -0.0000 -0.3243 0.9460
vn 0.1513 -0.3205 0.9351
vn 0.3243 -0.0000 0.9460
vn -0.0000 -0.3243 -0.9460
vn -0.1513 -0.3205 -0.9351
vn -0.3243 -0.0000 -0.9460
vn -0.9780 -0.2086 -0.0000
vn -0.9681 -0.2065 0.1416
vn -0.9780 -0.0000 0.2087
vn 0.9780 -0.2086 -0.0000
vn 0.9681 -0.2065 -0.1416
vn 0.9780 -0.0000 -0.2087
vn 0.1513 -0.3205 -0.9351
vn 0.3243 -0.0000 -0.9460
vn 0.9681 -0.2065 0.1416
vn 0.9780 -0.0000 0.2087
vn -0.9681 -0.2065 -0.1416
vn -0.9780 -0.0000 -0.2087
vn -0.1513 -0.3205 0.9351
vn -0.3243 -0.0000 0.9460
vn -0.1513 0.3206 0.9351
vn -0.9681 0.2066 -0.1416
vn 0.9681 0.2066 0.1416
vn 0.1513 0.3206 -0.9351
vn 0.9681 0.2066 -0.1416
vn -0.9681 0.2066 0.1416
vn 0.1197 0.9928 -0.0000
vn -0.1197 -0.9928 -0.0000
vn -0.1513 0.3206 -0.9351
vn 0.1513 0.3206 0.9351
vn 0.3205 -0.1513 0.9351
vn -0.3205 -0.1513 -0.9351
vn -0.9681 -0.1416 0.2066
vn 0.9681 -0.1416 -0.2066
vn 0.3205 -0.1513 -0.9351
vn 0.9681 -0.1416 0.2066
vn -0.9681 -0.1416 -0.2066
vn -0.3205 -0.1513 0.9351
vt 0.791667 0.666667
vt 0.875000 0.750000
vt 0.791667 0.750000
vt 0.541675 0.916667
vt 0.625000 1.000000
vt 0.541675 1.000000
vt 0.541675 0.166667
vt 0.625000 0.250000
vt 0.541675 0.250000
vt 0.291667 0.666667
vt 0.375000 0.750000
vt 0.291667 0.750000
vt 0.541675 0.666667
vt 0.625000 0.750000
vt 0.541675 0.750000
vt 0.541675 0.416667
vt 0.625000 0.500000
vt 0.541675 0.500000
vt 0.541675 0.583333
vt 0.625000 0.583333
vt 0.375000 0.500000
vt 0.291667 0.583333
vt 0.291667 0.500000
vt 0.375000 0.583333
vt 0.625000 0.000000
vt 0.541675 0.083333
vt 0.541675 0.000000
vt 0.625000 0.083333
vt 0.875000 0.500000
vt 0.791667 0.583333
vt 0.791667 0.500000
vt 0.875000 0.583333
vt 0.708333 0.583333
vt 0.625000 0.666667
vt 0.708333 0.666667
vt 0.208333 0.583333
vt 0.125000 0.666667
vt 0.125000 0.583333
vt 0.208333 0.666667
vt 0.125000 0.500000
vt 0.208333 0.500000
vt 0.541675 0.333333
vt 0.625000 0.333333
vt 0.125000 0.750000
vt 0.208333 0.750000
vt 0.541675 0.833333
vt 0.625000 0.833333
vt 0.708333 0.750000
vt 0.708333 0.500000
vt 0.625000 0.416667
vt 0.625000 0.916667
vt 0.458341 0.833333
vt 0.375000 0.916667
vt 0.375000 0.833333
vt 0.458341 0.916667
vt 0.458341 0.750000
vt 0.458341 0.333333
vt 0.375000 0.416667
vt 0.375000 0.333333
vt 0.458341 0.416667
vt 0.375000 0.250000
vt 0.458341 0.250000
vt 0.458341 0.083333
vt 0.375000 0.166667
vt 0.375000 0.083333
vt 0.458341 0.166667
vt 0.375000 0.000000
vt 0.458341 0.000000
vt 0.458341 0.583333
vt 0.375000 0.666667
vt 0.458341 0.666667
vt 0.458341 0.500000
vt 0.375000 1.000000
vt 0.458341 1.000000
vt 0.875000 0.666667
vt 0.625000 0.166667
s 0
usemtl Material
f 31/1/1 7/2/1 20/3/1
f 63/4/2 7/5/2 44/6/2
f 55/7/3 5/8/3 47/9/3
f 27/10/4 4/11/4 22/12/4
f 51/13/5 3/14/5 45/15/5
f 59/16/6 1/17/6 41/18/6
f 1/17/7 49/19/7 41/18/7
f 11/20/8 51/13/8 49/19/8
f 2/21/4 25/22/4 17/23/4
f 16/24/9 27/10/9 25/22/9
f 7/25/10 53/26/10 44/27/10
f 13/28/11 55/7/11 53/26/11
f 5/29/1 29/30/1 23/31/1
f 14/32/12 31/1/12 29/30/12
f 30/33/12 12/34/12 11/20/12
f 29/30/12 32/35/12 30/33/12
f 1/17/13 30/33/13 11/20/13
f 23/31/14 37/30/14 35/31/14
f 26/36/9 10/37/9 9/38/9
f 25/22/9 28/39/9 26/36/9
f 6/40/15 26/36/15 9/38/15
f 17/23/9 26/36/9 18/41/9
f 5/8/16 57/42/16 47/9/16
f 23/43/17 59/16/17 57/42/17
f 28/39/18 8/44/18 10/37/18
f 27/10/9 21/45/9 28/39/9
f 3/14/19 61/46/19 45/15/19
f 19/47/20 63/4/20 61/46/20
f 32/35/21 3/14/21 12/34/21
f 19/48/22 40/35/22 33/48/22
f 35/31/23 38/33/23 36/49/23
f 39/1/24 33/48/24 40/35/24
f 31/1/25 40/35/25 32/35/25
f 30/33/26 37/30/26 29/30/26
f 20/3/14 39/1/14 31/1/14
f 24/49/22 38/33/22 30/33/22
f 23/43/25 36/50/25 24/50/25
f 19/47/26 34/51/26 20/51/26
f 62/52/27 21/53/27 22/54/27
f 61/46/26 64/55/26 62/52/26
f 4/11/28 62/52/28 22/54/28
f 45/15/29 62/52/29 46/56/29
f 58/57/30 17/58/30 18/59/30
f 57/42/25 60/60/25 58/57/25
f 6/61/31 58/57/31 18/59/31
f 47/9/32 58/57/32 48/62/32
f 54/63/33 9/64/33 10/65/33
f 53/26/14 56/66/14 54/63/14
f 8/67/34 54/63/34 10/65/34
f 44/27/35 54/63/35 43/68/35
f 50/69/36 15/70/36 16/24/36
f 49/19/22 52/71/22 50/69/22
f 2/21/37 50/69/37 16/24/37
f 41/18/38 50/69/38 42/72/38
f 60/60/39 2/21/39 17/58/39
f 59/16/40 42/72/40 60/60/40
f 52/71/41 4/11/41 15/70/41
f 51/13/42 46/56/42 52/71/42
f 56/66/43 6/61/43 9/64/43
f 55/7/44 48/62/44 56/66/44
f 64/55/45 8/73/45 21/53/45
f 63/4/46 43/74/46 64/55/46
f 31/1/21 13/75/21 7/2/21
f 63/4/47 20/51/47 7/5/47
f 55/7/48 14/76/48 5/8/48
f 27/10/18 15/70/18 4/11/18
f 51/13/49 12/34/49 3/14/49
f 59/16/50 24/50/50 1/17/50
f 1/17/51 11/20/51 49/19/51
f 11/20/8 12/34/8 51/13/8
f 2/21/15 16/24/15 25/22/15
f 16/24/9 15/70/9 27/10/9
f 7/25/52 13/28/52 53/26/52
f 13/28/11 14/76/11 55/7/11
f 5/29/13 14/32/13 29/30/13
f 14/32/12 13/75/12 31/1/12
f 30/33/12 32/35/12 12/34/12
f 29/30/12 31/1/12 32/35/12
f 1/17/53 24/49/53 30/33/53
f 23/31/14 29/30/14 37/30/14
f 26/36/9 28/39/9 10/37/9
f 25/22/9 27/10/9 28/39/9
f 6/40/54 18/41/54 26/36/54
f 17/23/9 25/22/9 26/36/9
f 5/8/55 23/43/55 57/42/55
f 23/43/17 24/50/17 59/16/17
f 28/39/54 21/45/54 8/44/54
f 27/10/9 22/12/9 21/45/9
f 3/14/56 19/47/56 61/46/56
f 19/47/20 20/51/20 63/4/20
f 32/35/53 19/48/53 3/14/53
f 19/48/22 32/35/22 40/35/22
f 35/31/23 37/30/23 38/33/23
f 39/1/24 34/3/24 33/48/24
f 31/1/25 39/1/25 40/35/25
f 30/33/26 38/33/26 37/30/26
f 20/3/14 34/3/14 39/1/14
f 24/49/22 36/49/22 38/33/22
f 23/43/25 35/43/25 36/50/25
f 19/47/26 33/47/26 34/51/26
f 62/52/27 64/55/27 21/53/27
f 61/46/26 63/4/26 64/55/26
f 4/11/57 46/56/57 62/52/57
f 45/15/29 61/46/29 62/52/29
f 58/57/30 60/60/30 17/58/30
f 57/42/25 59/16/25 60/60/25
f 6/61/58 48/62/58 58/57/58
f 47/9/32 57/42/32 58/57/32
f 54/63/33 56/66/33 9/64/33
f 53/26/14 55/7/14 56/66/14
f 8/67/59 43/68/59 54/63/59
f 44/27/35 53/26/35 54/63/35
f 50/69/36 52/71/36 15/70/36
f 49/19/22 51/13/22 52/71/22
f 2/21/60 42/72/60 50/69/60
f 41/18/38 49/19/38 50/69/38
f 60/60/61 42/72/61 2/21/61
f 59/16/40 41/18/40 42/72/40
f 52/71/62 46/56/62 4/11/62
f 51/13/42 45/15/42 46/56/42
f 56/66/63 48/62/63 6/61/63
f 55/7/44 47/9/44 48/62/44
f 64/55/64 43/74/64 8/73/64
f 63/4/46 44/6/46 43/74/46
